Coordinates
version=1
nRows=10
nColumns=40
inDegrees=yes

Units are S.I. units (second, meters, Newtons, ...)
If the header above contains a line with 'inDegrees', this indicates whether rotational values are in degrees (yes) or radians (no).

endheader
time	pelvis_tilt	pelvis_list	pelvis_rotation	pelvis_tx	pelvis_ty	pelvis_tz	hip_flexion_r	hip_adduction_r	hip_rotation_r	knee_angle_r	knee_angle_r_beta	ankle_angle_r	subtalar_angle_r	mtp_angle_r	hip_flexion_l	hip_adduction_l	hip_rotation_l	knee_angle_l	knee_angle_l_beta	ankle_angle_l	subtalar_angle_l	mtp_angle_l	lumbar_extension	lumbar_bending	lumbar_rotation	arm_flex_r	arm_add_r	arm_rot_r	elbow_flex_r	pro_sup_r	wrist_flex_r	wrist_dev_r	arm_flex_l	arm_add_l	arm_rot_l	elbow_flex_l	pro_sup_l	wrist_flex_l	wrist_dev_l
      7.47500000	    -89.37054644	     74.06452767	    -88.93233032	      0.84301443	      0.27967912	      0.57327620	     45.00000012	     -9.99999999	      0.00000000	     60.00014062	      1.04720001	     -4.99999985	      0.00000000	      0.00000000	     45.00000012	     -9.99999999	      0.00000000	     60.00014062	      1.04720001	     -4.99999985	      0.00000000	      0.00000000	    -19.06955923	      0.92931333	      1.53544791	      1.97940938	    -30.69533016	     30.84953961	     87.46498200	     87.73676405	      0.00000000	      0.00000000	      1.83264544	    -25.88426221	     25.17423117	     75.31967250	     88.97984908	      0.00000000	      0.00000000
      7.48000000	    -89.36493072	     74.17008695	    -88.90240454	      0.84309744	      0.27964310	      0.57299917	     45.00000012	     -9.99999999	      0.00000000	     60.00014062	      1.04720001	     -4.99999985	      0.00000000	      0.00000000	     45.00000012	     -9.99999999	      0.00000000	     60.00014062	      1.04720001	     -4.99999985	      0.00000000	      0.00000000	    -18.88533614	      0.92059742	      1.52646608	      1.92682083	    -30.66003593	     30.76851053	     87.41364980	     87.69860887	      0.00000000	      0.00000000	      1.77230917	    -25.83295393	     25.03771721	     75.32441105	     88.98521100	      0.00000000	      0.00000000
      7.48500000	    -89.37709716	     74.12286865	    -88.90421397	      0.84306332	      0.27963091	      0.57301248	     45.00000012	     -9.99999999	      0.00000000	     60.00014062	      1.04720001	     -4.99999985	      0.00000000	      0.00000000	     45.00000012	     -9.99999999	      0.00000000	     60.00014062	      1.04720001	     -4.99999985	      0.00000000	      0.00000000	    -18.83741969	      0.91326991	      1.54777602	      1.96505266	    -30.66232182	     30.85348821	     87.31952802	     87.76708003	      0.00000000	      0.00000000	      1.77611031	    -25.80711532	     25.07226168	     75.24234044	     88.98021815	      0.00000000	      0.00000000
      7.49000000	    -89.37551460	     74.13227679	    -88.89810432	      0.84304301	      0.27959795	      0.57294541	     45.00000012	     -9.99999999	      0.00000000	     60.00014062	      1.04720001	     -4.99999985	      0.00000000	      0.00000000	     45.00000012	     -9.99999999	      0.00000000	     60.00014062	      1.04720001	     -4.99999985	      0.00000000	      0.00000000	    -18.73301445	      0.90631141	      1.56230494	      1.93849561	    -30.65117802	     30.83846747	     87.25575465	     87.79181788	      0.00000000	      0.00000000	      1.77264639	    -25.77299566	     25.07781957	     75.18331122	     88.97260743	      0.00000000	      0.00000000
      7.49500000	    -89.36125796	     74.08929300	    -88.88149718	      0.84307068	      0.27956477	      0.57304586	     45.00000012	     -9.99999999	      0.00000000	     60.00014062	      1.04720001	     -4.99999985	      0.00000000	      0.00000000	     45.00000012	     -9.99999999	      0.00000000	     60.00014062	      1.04720001	     -4.99999985	      0.00000000	      0.00000000	    -18.69502249	      0.90014065	      1.55132109	      1.94815848	    -30.60172313	     30.84252176	     87.13442270	     87.76042358	      0.00000000	      0.00000000	      1.75678098	    -25.72896877	     25.04505355	     75.10608754	     88.97434921	      0.00000000	      0.00000000
      7.50000000	    -89.37970660	     74.03478830	    -88.92182735	      0.84292908	      0.27963012	      0.57309271	     45.00000012	     -9.99999999	      0.00000000	     60.00014062	      1.04720001	     -4.99999985	      0.00000000	      0.00000000	     45.00000012	     -9.99999999	      0.00000000	     60.00014062	      1.04720001	     -4.99999985	      0.00000000	      0.00000000	    -18.65007290	      0.88155591	      1.64298761	      1.88708328	    -30.58278873	     30.78493652	     87.09659751	     87.76788165	      0.00000000	      0.00000000	      1.75028992	    -25.68544612	     25.05783564	     75.03571150	     88.97652373	      0.00000000	      0.00000000
      7.50500000	    -89.38023004	     73.94064488	    -88.85437716	      0.84296852	      0.27952515	      0.57329992	     45.00000012	     -9.99999999	      0.00000000	     60.00014062	      1.04720001	     -4.99999985	      0.00000000	      0.00000000	     45.00000012	     -9.99999999	      0.00000000	     60.00014062	      1.04720001	     -4.99999985	      0.00000000	      0.00000000	    -18.66071416	      0.88868646	      1.54817427	      2.01041722	    -30.57129425	     30.98451480	     86.90716422	     87.54016805	      0.00000000	      0.00000000	      1.73241497	    -25.65858955	     25.02445198	     74.94401360	     89.03199416	      0.00000000	      0.00000000
      7.51000000	    -89.37566269	     73.99279685	    -88.88021191	      0.84295285	      0.27951526	      0.57314527	     45.00000012	     -9.99999999	      0.00000000	     60.00014062	      1.04720001	     -4.99999985	      0.00000000	      0.00000000	     45.00000012	     -9.99999999	      0.00000000	     60.00014062	      1.04720001	     -4.99999985	      0.00000000	      0.00000000	    -18.51805079	      0.87394456	      1.62057869	      1.90980121	    -30.52983724	     30.82923034	     86.87814462	     87.69548290	      0.00000000	      0.00000000	      1.72981083	    -25.60574428	     25.02008619	     74.88944883	     89.00288031	      0.00000000	      0.00000000
      7.51500000	    -89.37321471	     74.00949810	    -88.86918359	      0.84292194	      0.27947563	      0.57308712	     45.00000012	     -9.99999999	      0.00000000	     60.00014062	      1.04720001	     -4.99999985	      0.00000000	      0.00000000	     45.00000012	     -9.99999999	      0.00000000	     60.00014062	      1.04720001	     -4.99999985	      0.00000000	      0.00000000	    -18.40991330	      0.86402664	      1.62504665	      1.86325598	    -30.49130840	     30.76302493	     86.82595917	     87.69356729	      0.00000000	      0.00000000	      1.68326697	    -25.56109043	     24.98111094	     74.87363104	     89.00027590	      0.00000000	      0.00000000
      7.52000000	    -89.36988217	     73.97646295	    -88.88584138	      0.84286534	      0.27943043	      0.57314204	     45.00000012	     -9.99999999	      0.00000000	     60.00014062	      1.04720001	     -4.99999985	      0.00000000	      0.00000000	     45.00000012	     -9.99999999	      0.00000000	     60.00014062	      1.04720001	     -4.99999985	      0.00000000	      0.00000000	    -18.35405012	      0.85259158	      1.66036093	      1.84275827	    -30.46870521	     30.75365112	     86.71476945	     87.74092476	      0.00000000	      0.00000000	      1.67777171	    -25.50352188	     24.95344836	     74.77667879	     88.97737964	      0.00000000	      0.00000000
